<svg xmlns="http://www.w3.org/2000/svg" viewBox="0 0 512 512" width="512" height="512">
  <!-- Background -->
  <rect width="512" height="512" fill="#2B5A7A" rx="20"/>
  
  <!-- Central hub circle -->
  <circle cx="256" cy="280" r="45" fill="#E8E8E8" stroke="#C0C0C0" stroke-width="2"/>
  
  <!-- Inner circle -->
  <circle cx="256" cy="280" r="35" fill="#F5F5F5"/>
  
  <!-- Connection lines from center -->
  <g stroke="#E8E8E8" stroke-width="4" fill="none">
    <!-- Top -->
    <line x1="256" y1="235" x2="256" y2="180"/>
    <!-- Top-right -->
    <line x1="288" y1="248" x2="320" y2="216"/>
    <!-- Right -->
    <line x1="301" y1="280" x2="356" y2="280"/>
    <!-- Bottom-right -->
    <line x1="288" y1="312" x2="320" y2="344"/>
    <!-- Bottom -->
    <line x1="256" y1="325" x2="256" y2="380"/>
    <!-- Bottom-left -->
    <line x1="224" y1="312" x2="192" y2="344"/>
    <!-- Left -->
    <line x1="211" y1="280" x2="156" y2="280"/>
    <!-- Top-left -->
    <line x1="224" y1="248" x2="192" y2="216"/>
  </g>
  
  <!-- Connection squares -->
  <g fill="#E8E8E8" stroke="#C0C0C0" stroke-width="1">
    <!-- Top -->
    <rect x="244" y="168" width="24" height="24" rx="3"/>
    <!-- Top-right -->
    <rect x="308" y="204" width="24" height="24" rx="3"/>
    <!-- Right -->
    <rect x="344" y="268" width="24" height="24" rx="3"/>
    <!-- Bottom-right -->
    <rect x="308" y="332" width="24" height="24" rx="3"/>
    <!-- Bottom -->
    <rect x="244" y="368" width="24" height="24" rx="3"/>
    <!-- Bottom-left -->
    <rect x="180" y="332" width="24" height="24" rx="3"/>
    <!-- Left -->
    <rect x="144" y="268" width="24" height="24" rx="3"/>
    <!-- Top-left -->
    <rect x="180" y="204" width="24" height="24" rx="3"/>
  </g>
  
  <!-- Text "smart hub" -->
  <g fill="#FFFFFF" font-family="Arial, sans-serif" font-weight="400">
    <!-- "smart" text -->
    <text x="95" y="140" font-size="44" letter-spacing="2px">smart</text>
    <!-- "hub" text -->
    <text x="315" y="140" font-size="44" letter-spacing="2px">hub</text>
  </g>
  
  <!-- TM symbol -->
  <text x="420" y="120" fill="#FFFFFF" font-family="Arial, sans-serif" font-size="16" font-weight="300">™</text>
</svg>